# xmcd CD database file
#
# Track frame offsets:
#	150
#	26973
#	38576
#	46497
#	55769
#	61687
#	85233
#	100394
#	112846
#	121030
#	135150
#	150574
#	174076
#	190673
#
# Disc length: 2845 seconds
#
# Revision: 1
# Processed by: cddbd v1.5.2PL0 Copyright (c) Steve Scherf et al.
# Submitted via: CDex 1.83
#
DISCID=9f0b1b0e
DTITLE=Line Up Band - Louis! What a wonderful world
DYEAR=1900
DGENRE=Jazz
TTITLE0=Shout 'em aunt Tilly
TTITLE1=I'm going to love the life I sing about in my song Pt. 1
TTITLE2=I'm going to love the life I sing about in my song Pt. 2
TTITLE3=I'm going to love the life I sing about in my song Pt. 3
TTITLE4=Deep Down south Pt. 1
TTITLE5=St. James Infirmary
TTITLE6=Summertime
TTITLE7=Wild man blues
TTITLE8=Deep Down South Pt. II
TTITLE9=New Orleans Funeral Dirge Pt. I Flee as a bird
TTITLE10=New Orleans Funeral Dirge Pt. II Lord Lord Lord
TTITLE11=My Blue heaven
TTITLE12=Caravan
TTITLE13=What a wonderful world
EXTD=
EXTT0=
EXTT1=
EXTT2=
EXTT3=
EXTT4=
EXTT5=
EXTT6=
EXTT7=
EXTT8=
EXTT9=
EXTT10=
EXTT11=
EXTT12=
EXTT13=
PLAYORDER=
